<?xml version="1.0" encoding="utf-8"?>
<!-- Generator: Adobe Illustrator 27.5.0, SVG Export Plug-In . SVG Version: 6.00 Build 0)  -->
<svg version="1.1" id="Capa_2_00000174583160797886262930000000574717726575293078_"
	 xmlns="http://www.w3.org/2000/svg" xmlns:xlink="http://www.w3.org/1999/xlink" x="0px" y="0px" viewBox="0 0 2122 2122"
	 style="enable-background:new 0 0 2122 2122;" xml:space="preserve">
<path style="fill:#81BB27;" d="M1837.416,404.141l-0.008-0.43c-0.01-0.533-0.024-1.064-0.042-1.596l-0.011-0.337
	c-0.023-0.635-0.051-1.268-0.084-1.899l-0.016-0.291c-0.029-0.531-0.062-1.062-0.098-1.592l-0.034-0.475
	c-0.044-0.607-0.091-1.213-0.145-1.818l-0.002-0.029c-0.055-0.626-0.117-1.251-0.183-1.874l-0.045-0.419
	c-0.056-0.523-0.116-1.045-0.18-1.566l-0.038-0.313c-0.078-0.625-0.161-1.249-0.248-1.871l-0.034-0.236
	c-0.077-0.543-0.16-1.084-0.245-1.624l-0.062-0.39c-0.098-0.608-0.199-1.215-0.307-1.82l0-0.003c-0.11-0.619-0.226-1.235-0.346-1.85
	l-0.071-0.358c-0.106-0.533-0.214-1.065-0.327-1.595l-0.052-0.246c-0.135-0.626-0.273-1.251-0.418-1.873l-0.01-0.043
	c-0.137-0.588-0.279-1.172-0.424-1.756l-0.081-0.323c-0.305-1.21-0.629-2.412-0.972-3.606l-0.082-0.281
	c-0.153-0.527-0.309-1.053-0.469-1.577l-0.074-0.243c-0.37-1.2-0.758-2.392-1.164-3.575l-0.087-0.252
	c-0.416-1.201-0.85-2.394-1.304-3.577l-0.023-0.059c-0.222-0.575-0.447-1.148-0.677-1.72l-0.053-0.133
	c-0.475-1.175-0.969-2.34-1.481-3.495l-0.082-0.186c-0.78-1.752-1.601-3.481-2.464-5.186l-0.038-0.076
	c-0.584-1.152-1.186-2.292-1.807-3.422l-0.021-0.039c-19.78-35.961-58.027-60.332-101.968-60.332c-11.427,0-22.468,1.649-32.9,4.721
	c-23.125-26.002-51.796-46.889-83.979-61.413c-54.519-24.604-114.542-30.945-173.048-18.566
	c-57.527,12.172-110.739,42.708-152.579,83.689c-43.513,42.619-73.197,97.381-86.874,156.619
	c-8.742,37.864-10.896,77.229-7.076,116.019c-40.913-7.884-82.586-10.736-124.021-8.151c-41.865-2.609-83.98,0.329-125.309,8.401
	c10.79-93.341-12.336-189.883-76.431-261.78c-37.719-42.311-87.07-74.759-141.686-90.47c-58.133-16.723-119.268-13.07-175.802,7.796
	c-39.337,14.52-75.807,38.24-104.375,69.105c-11.586-3.87-23.983-5.968-36.871-5.968c-45.346,0-84.629,25.953-103.809,63.816
	l-0.008,0.017c-0.875,1.727-1.707,3.479-2.496,5.253l-0.057,0.127c-0.52,1.172-1.021,2.355-1.502,3.547l-0.028,0.071
	c-0.236,0.584-0.466,1.17-0.693,1.759l-0.022,0.058c-0.457,1.193-0.896,2.395-1.315,3.607l-0.066,0.193
	c-0.41,1.193-0.802,2.394-1.174,3.604l-0.073,0.239c-0.165,0.539-0.326,1.08-0.482,1.622l-0.062,0.216
	c-0.348,1.212-0.677,2.432-0.987,3.66l-0.065,0.261c-0.148,0.594-0.293,1.19-0.432,1.788l-0.01,0.042
	c-0.145,0.623-0.284,1.247-0.419,1.873l-0.051,0.242c-0.116,0.545-0.227,1.091-0.336,1.638l-0.058,0.293
	c-0.122,0.624-0.24,1.249-0.351,1.876l-0.001,0.003c-0.108,0.605-0.209,1.212-0.307,1.82l-0.062,0.386
	c-0.089,0.563-0.175,1.127-0.255,1.693l-0.022,0.15c-0.089,0.629-0.173,1.26-0.251,1.893l-0.038,0.312
	c-0.064,0.521-0.124,1.043-0.181,1.566l-0.045,0.419c-0.065,0.623-0.127,1.248-0.183,1.874l-0.003,0.029
	c-0.053,0.604-0.1,1.21-0.145,1.818l-0.033,0.475c-0.036,0.53-0.069,1.061-0.098,1.592l-0.016,0.291
	c-0.033,0.632-0.061,1.265-0.084,1.899l-0.01,0.337c-0.018,0.531-0.032,1.063-0.042,1.596l-0.008,0.43
	c-0.01,0.637-0.017,1.274-0.017,1.914c0,53.077,35.557,97.847,84.15,111.796l0.61,0.173c10.029,2.819,20.607,4.329,31.538,4.329
	c0.762,0,1.522-0.009,2.28-0.024l0.659-0.013l0.726-0.022l0.726-0.023l0.796-0.034l0.663-0.029l0.831-0.046l0.612-0.035l0.78-0.052
	l0.7-0.048l0.723-0.058l0.71-0.058l0.789-0.072l0.635-0.06l0.772-0.08l0.692-0.075l0.757-0.088l0.632-0.076l0.826-0.106l0.601-0.08
	l0.812-0.114l0.619-0.09l0.767-0.118l0.657-0.104l0.76-0.126l0.636-0.11l0.788-0.14l0.606-0.112l0.778-0.148l0.616-0.122l0.79-0.161
	l0.589-0.124l0.783-0.169l0.63-0.142l0.754-0.172l0.581-0.138l0.806-0.194l0.547-0.137l0.815-0.207l0.566-0.149l0.784-0.209
	l0.597-0.165l0.762-0.213l0.537-0.156l0.816-0.238l0.478-0.146l0.859-0.262l0.381-0.121c1.055-0.333,2.104-0.681,3.146-1.043
	l0.418-0.144l0.74-0.265l0.577-0.207l0.748-0.278l0.55-0.206l0.798-0.307l0.489-0.189l0.778-0.31l0.521-0.209l0.791-0.326
	l0.471-0.196l0.753-0.321l0.563-0.242l0.684-0.301l0.567-0.252l0.71-0.323l0.551-0.254l0.683-0.32l0.59-0.28l0.636-0.307
	l0.612-0.299l0.653-0.325l0.545-0.275l0.711-0.364l0.502-0.261l0.726-0.383l0.484-0.259l0.717-0.389l0.51-0.281l0.683-0.38
	l0.494-0.28l0.735-0.422l0.438-0.255l0.708-0.416l0.518-0.311l0.674-0.407l0.484-0.299l0.677-0.42l0.46-0.29l0.716-0.455
	l0.388-0.252l0.753-0.492l0.39-0.26l0.757-0.506l0.305-0.209l0.812-0.557l0.275-0.193c1.327-0.927,2.634-1.88,3.92-2.861
	l0.183-0.138l0.779-0.604l0.305-0.236l0.743-0.589l0.321-0.255l0.692-0.561l0.382-0.312l0.622-0.516l0.432-0.36l0.64-0.545
	l0.388-0.333l0.625-0.543l0.413-0.363l0.615-0.548l0.397-0.356l0.624-0.569l0.371-0.341l0.633-0.591l0.364-0.343l0.627-0.599
	l0.35-0.338l0.619-0.605l0.367-0.363l0.597-0.597l0.348-0.352l0.632-0.647l0.296-0.307l0.633-0.663l0.322-0.342l0.603-0.646
	l0.337-0.366l0.582-0.637l0.322-0.359l0.591-0.663l0.302-0.345l0.599-0.688l0.261-0.305l0.636-0.747l0.195-0.234l0.675-0.812
	l0.161-0.198l0.703-0.864l0.075-0.095c1.919-2.394,3.745-4.866,5.473-7.41l0.06-0.089l0.65-0.97l0.11-0.165l0.605-0.926l0.144-0.222
	l0.565-0.888l0.172-0.271l0.555-0.894l0.156-0.253l0.549-0.909l0.16-0.268l0.525-0.892l0.166-0.285l0.503-0.878l0.189-0.333
	l0.464-0.832l0.204-0.37l0.47-0.866l0.167-0.312l0.464-0.879l0.183-0.352l0.456-0.891l0.154-0.306l0.453-0.909l0.163-0.332
	l0.436-0.901l0.158-0.333l0.432-0.92l0.143-0.312l0.424-0.932l0.148-0.333l0.41-0.929l0.122-0.284l0.435-1.018l0.055-0.132
	l0.471-1.142l0.029-0.073c1.513-3.734,2.838-7.564,3.964-11.479l0.043-0.148l0.304-1.088l0.074-0.269l0.305-1.143l0.048-0.181
	l0.294-1.155l0.051-0.203l0.264-1.095l0.069-0.292l0.244-1.069l0.065-0.29l0.237-1.098l0.057-0.27l0.219-1.075l0.066-0.331
	l0.201-1.054l0.06-0.324l0.186-1.043l0.065-0.381l0.167-1.002l0.065-0.41l0.155-1.007l0.054-0.369l0.148-1.045l0.048-0.362
	l0.136-1.054l0.046-0.377l0.118-1.013l0.047-0.438l0.106-1.016l0.032-0.339l0.102-1.109l0.022-0.265l0.093-1.164l0.018-0.256
	l0.081-1.193l0.001-0.022h0c0.147-2.394,0.223-4.807,0.223-7.238c0-38.842-19.043-73.235-48.301-94.356
	c5.573-6.402,11.512-12.488,17.766-18.226c0.88-0.807,1.776-1.595,2.656-2.401l0.813-0.751l0.788-0.643
	c2.309-1.898,4.617-3.792,6.981-5.624c5.204-4.035,10.574-7.856,16.088-11.457c2.51-1.639,5.051-3.232,7.618-4.78
	c0.5-0.302,4.23-2.447,2.858-1.691c0.565-0.314,1.13-0.627,1.698-0.936c5.805-3.167,11.735-6.105,17.768-8.81
	c3.02-1.354,6.068-2.647,9.138-3.883c1.396-0.562,2.797-1.113,4.203-1.65c0.079-0.031,1.886-0.683,2.83-1.031
	c0.838-0.286,1.685-0.576,1.739-0.594c1.713-0.573,3.433-1.128,5.159-1.664c3.451-1.073,6.924-2.073,10.418-2.999
	c5.834-1.547,11.715-2.753,17.615-4.004c-5.653,1.199,3.336-0.518,4.793-0.73c3.573-0.52,7.158-0.964,10.75-1.326
	c5.985-0.603,11.992-0.991,18.005-1.15c0.656-0.017,6.03-0.017,2.443-0.05c0.945,0.008,1.889,0.016,2.834,0.034
	c3.607,0.067,7.213,0.219,10.813,0.454c6.113,0.399,12.211,1.043,18.275,1.908c2.633,0.375,5.26,0.795,7.88,1.255l3.607,0.716
	c1.813,0.383,3.622,0.786,5.426,1.208c26.637,6.235,48.399,15.145,71.218,28.526c22.382,13.125,42.036,28.476,59.758,46.714
	c39.078,40.215,64.916,89.915,76.813,144.62c8.45,38.854,9.789,79.337,4.543,118.919c-44.508,12.797-87.63,31.577-128.006,55.802
	c-60.097,36.01-114.137,84.137-157.562,142.44c-122.182,164.008-155.913,402.216-84.815,599.326
	c66.786,185.186,264.623,533.799,539.568,533.799c49.24,0,95.477-10.323,138.708-28.352
	c208.015-86.802,345.56-352.102,400.859-505.447c71.099-197.111,37.368-435.318-84.814-599.326
	c-72.375-97.133-174.042-165.873-284.318-197.878c-5.229-33.708-5.729-68.097-0.973-102.092
	c4.12-29.451,12.007-58.318,24.343-85.404c5.589-12.271,11.998-24.158,19.221-35.547c7.209-11.367,12.698-18.829,21.661-29.406
	c8.851-10.444,18.415-20.286,28.601-29.433c0.864-0.776,1.735-1.543,2.605-2.311c-2.56,2.262,1.866-1.581,2.036-1.722
	c2.388-1.988,4.805-3.94,7.254-5.853c5.382-4.202,10.904-8.225,16.564-12.046c5.141-3.469,10.406-6.727,15.728-9.908l0.485-0.29
	l0.345-0.181c1.367-0.722,2.71-1.494,4.073-2.223c3.272-1.75,6.578-3.435,9.916-5.054c5.558-2.695,11.205-5.204,16.931-7.521
	c2.131-0.863,4.275-1.696,6.428-2.504c-0.35,0.145,2.945-1.028,3.566-1.235c1.756-0.586,3.517-1.154,5.285-1.704
	c6.189-1.923,12.448-3.616,18.763-5.07c3.084-0.71,6.182-1.347,9.287-1.954l0.277-0.043c2.141-0.335,4.28-0.678,6.427-0.976
	c6.356-0.882,12.748-1.525,19.156-1.891c3.002-0.172,6.006-0.264,9.012-0.343l0.356-0.009c2.242,0.02,4.483,0.055,6.725,0.132
	c6.012,0.207,12.016,0.635,17.997,1.284c2.991,0.325,5.977,0.704,8.955,1.137c1.787,0.26,3.572,0.54,5.353,0.839
	c0.585,0.098,3.662,0.68,3.506,0.637c11.943,2.434,23.71,5.712,35.187,9.821c3.401,1.218,6.776,2.508,10.122,3.867
	c1.447,0.587,2.888,1.191,4.323,1.806l3.136,1.413c6.539,3.039,12.948,6.361,19.202,9.949c12.467,7.152,24.317,15.378,35.342,24.6
	c7.326,6.128,14.697,13.382,21.672,21.295c-27.451,21.273-45.122,54.562-45.122,91.979c0,2.889,0.107,5.753,0.314,8.59l0.006,0.089
	l0.096,1.211l0.021,0.247l0.11,1.193l0.021,0.222l0.117,1.129l0.035,0.324l0.131,1.126l0.031,0.262l0.149,1.155l0.034,0.259
	l0.162,1.143l0.039,0.266l0.17,1.105l0.049,0.312l0.182,1.097l0.05,0.288l0.194,1.091l0.058,0.312l0.21,1.1l0.048,0.242l0.229,1.128
	l0.055,0.26l0.247,1.139l0.041,0.183l0.269,1.176l0.045,0.189l0.281,1.164l0.05,0.202l0.293,1.155l0.045,0.17l0.316,1.182
	l0.033,0.118c1.441,5.253,3.24,10.357,5.371,15.285l0.074,0.172l0.457,1.037l0.1,0.225l0.469,1.03l0.098,0.212l0.474,1.009
	l0.116,0.245l0.454,0.94l0.158,0.323l0.453,0.909l0.152,0.302l0.477,0.931l0.147,0.282l0.484,0.918l0.162,0.302l0.49,0.903
	l0.161,0.293l0.503,0.901l0.163,0.288l0.521,0.908l0.149,0.256l0.538,0.914l0.159,0.265l0.549,0.909l0.156,0.253l0.554,0.894
	l0.164,0.259l0.588,0.923l0.072,0.11l0.677,1.037l0.023,0.035l0.722,1.079l0.06,0.089c1.964,2.891,4.054,5.688,6.263,8.385
	l0.148,0.182l0.676,0.812l0.194,0.233l0.682,0.801l0.199,0.232l0.665,0.764l0.235,0.268l0.652,0.731l0.26,0.29l0.64,0.702
	l0.278,0.302l0.657,0.704l0.269,0.285l0.646,0.675l0.316,0.328l0.624,0.638l0.326,0.33l0.641,0.641l0.314,0.311l0.67,0.654
	l0.301,0.29l0.655,0.626l0.354,0.334l0.659,0.614l0.316,0.291l0.676,0.616l0.365,0.327l0.635,0.566l0.397,0.348l0.639,0.556
	l0.373,0.32l0.669,0.569l0.358,0.299l0.697,0.579l0.298,0.243l0.774,0.628l0.229,0.182l0.819,0.65l0.319,0.247l0.766,0.594
	l0.183,0.138c1.342,1.023,2.707,2.018,4.094,2.983l0.087,0.061l0.873,0.599l0.256,0.176l0.758,0.507l0.39,0.26l0.753,0.492
	l0.389,0.252l0.743,0.472l0.421,0.266l0.703,0.436l0.468,0.288l0.702,0.424l0.475,0.285l0.746,0.438l0.412,0.241l0.751,0.43
	l0.469,0.266l0.725,0.404l0.464,0.256l0.751,0.408l0.463,0.247l0.739,0.39l0.481,0.25l0.745,0.382l0.503,0.254l0.693,0.345
	l0.571,0.279l0.676,0.326l0.548,0.261l0.723,0.339l0.508,0.233l0.749,0.34l0.543,0.241l0.695,0.307l0.573,0.246l0.732,0.312
	l0.51,0.213l0.763,0.314l0.498,0.2l0.811,0.323l0.422,0.164l0.863,0.332l0.503,0.188l0.787,0.293l0.532,0.19l0.793,0.284
	l0.285,0.099c1.137,0.397,2.282,0.776,3.435,1.138l0.208,0.066l0.905,0.276l0.439,0.134l0.816,0.238l0.537,0.156l0.783,0.219
	l0.57,0.158l0.802,0.214l0.554,0.146l0.834,0.212l0.521,0.13l0.835,0.201l0.553,0.131l0.773,0.177l0.618,0.139l0.784,0.169
	l0.59,0.124l0.781,0.159l0.631,0.125l0.769,0.146l0.609,0.113l0.788,0.14l0.636,0.11l0.76,0.126l0.656,0.104l0.769,0.118l0.612,0.09
	l0.821,0.116l0.595,0.079l0.828,0.106l0.632,0.076l0.758,0.088l0.686,0.074l0.78,0.08l0.629,0.06l0.792,0.072l0.71,0.058
	l0.724,0.058l0.701,0.048l0.78,0.052l0.612,0.035l0.832,0.046l0.663,0.029l0.797,0.034l0.726,0.023l0.726,0.022l0.659,0.013
	c0.758,0.015,1.518,0.024,2.28,0.024c10.901,0,21.45-1.502,31.454-4.305l0.694-0.197c11.84-3.399,22.907-8.626,32.875-15.36
	l1.156-0.791c30.285-20.995,50.119-56.004,50.119-95.645C1837.434,405.415,1837.427,404.778,1837.416,404.141z M1479.5,237.269"/>
<path style="fill:#174365;" d="M1112.295,1305.489c58.481,51.132,180.15,63.132,253.953,29.814
	c73.802-33.317,117.597-87.1,152.033-154.094c34.436-66.993,50.905-139.475,57.727-213.782c-13.303-1.563-26.344-2.416-39.137-2.606
	l0.01-0.054c-0.733-0.156-1.466-0.309-2.2-0.46l-0.805-0.163c-0.482-0.098-0.964-0.196-1.445-0.291l-0.875-0.171l-1.327-0.258
	l-0.938-0.177l-1.334-0.248l-0.88-0.16l-1.336-0.238l-0.944-0.165l-1.324-0.227l-0.908-0.152l-1.285-0.211l-0.995-0.16l-1.278-0.2
	l-0.944-0.145c-0.451-0.068-0.903-0.135-1.354-0.201l-0.871-0.128c-0.469-0.067-0.937-0.133-1.406-0.198l-0.863-0.121
	c-0.45-0.061-0.9-0.122-1.35-0.182l-0.912-0.121c-0.59-0.076-1.181-0.151-1.772-0.224l-0.442-0.056
	c-0.751-0.092-1.503-0.182-2.255-0.269l-0.632-0.071c-0.534-0.061-1.069-0.122-1.603-0.18l-0.913-0.097l-1.336-0.14l-0.968-0.096
	l-1.288-0.126l-0.977-0.09l-1.29-0.117l-0.983-0.084l-1.257-0.105l-0.979-0.078c-0.457-0.035-0.912-0.07-1.369-0.104l-0.859-0.062
	c-0.455-0.033-0.911-0.063-1.366-0.094l-0.925-0.061c-0.458-0.03-0.918-0.058-1.377-0.085l-0.9-0.053l-1.307-0.072l-0.958-0.051
	c-0.483-0.024-0.966-0.047-1.448-0.069l-0.802-0.037c-0.573-0.025-1.147-0.048-1.721-0.07l-0.523-0.021
	c-0.762-0.028-1.524-0.054-2.286-0.076l-0.09-0.003c-0.735-0.022-1.471-0.041-2.207-0.058l-0.472-0.009
	c-0.581-0.013-1.161-0.025-1.741-0.034l-1-0.013l-1.221-0.016l-1.061-0.008l-1.228-0.007l-1.031,0l-1.238,0.002l-0.986,0.005
	l-1.293,0.011l-1.01,0.013l-1.211,0.019l-1.083,0.02l-1.198,0.027l-1.02,0.026l-1.323,0.039l-0.929,0.029l-1.248,0.045l-1.086,0.041
	l-1.103,0.048l-1.111,0.049c-0.54,0.025-1.079,0.053-1.62,0.082l-0.627,0.032c-0.738,0.04-1.474,0.082-2.211,0.127l-1.067,0.068
	l-1.181,0.076l-1.177,0.083l-1.047,0.074l-1.196,0.091l-1.083,0.085l-1.166,0.097l-1.04,0.088l-1.229,0.11l-1.055,0.097
	l-1.126,0.108l-1.132,0.112l-1.156,0.118l-1.066,0.113l-1.154,0.125l-1.085,0.122l-1.201,0.138l-0.997,0.12l-1.215,0.148
	l-1.005,0.127l-1.274,0.163l-0.775,0.104c-0.479,0.064-0.958,0.128-1.437,0.193l-0.592,0.083c-0.993,0.138-1.985,0.281-2.978,0.428
	l-0.779,0.115l-1.317,0.203l-0.916,0.142c-0.488,0.076-0.977,0.156-1.465,0.234l-0.69,0.112c-0.471,0.077-0.942,0.156-1.413,0.235
	l-0.879,0.148l-1.253,0.217l-0.959,0.169l-1.311,0.235l-0.86,0.157c-0.467,0.086-0.932,0.173-1.399,0.26l-0.736,0.14
	c-0.496,0.095-0.994,0.19-1.49,0.287l-0.712,0.14c-0.479,0.095-0.959,0.19-1.438,0.286l-0.791,0.161
	c-0.484,0.099-0.968,0.198-1.451,0.299l-0.568,0.119c-0.544,0.114-1.087,0.229-1.629,0.346l-0.415,0.09
	c-3.341,0.724-6.672,1.498-9.993,2.32l-0.302,0.074c-0.56,0.139-1.119,0.28-1.678,0.422l-0.511,0.13
	c-0.537,0.137-1.074,0.276-1.61,0.416l-0.551,0.144c-0.53,0.139-1.059,0.28-1.588,0.421l-0.558,0.15
	c-0.538,0.145-1.076,0.291-1.613,0.439l-0.533,0.147c-0.53,0.146-1.058,0.293-1.588,0.443l-0.558,0.158
	c-0.539,0.153-1.078,0.306-1.617,0.462l-0.473,0.137c-0.56,0.162-1.12,0.325-1.679,0.491l-0.366,0.109
	c-0.597,0.177-1.195,0.355-1.792,0.535l-0.147,0.045c-4.118,1.247-8.216,2.571-12.291,3.971l-0.052,0.018
	c-0.652,0.225-1.305,0.451-1.956,0.68l-0.134,0.047c-0.63,0.221-1.26,0.444-1.89,0.669l-0.214,0.077
	c-0.587,0.211-1.174,0.422-1.76,0.636l-0.398,0.146c-0.57,0.208-1.139,0.418-1.708,0.629l-0.321,0.119
	c-0.609,0.227-1.217,0.456-1.826,0.686l-0.137,0.052c-0.643,0.244-1.285,0.49-1.926,0.737l-0.094,0.036
	c-6.082,2.351-12.105,4.876-18.059,7.57l-0.048,0.022c-0.65,0.294-1.298,0.59-1.945,0.889l-0.054,0.024
	c-0.65,0.299-1.299,0.601-1.948,0.904l-0.033,0.016c-24.665,11.545-48.1,26.037-69.638,43.321
	C1173.038,1097.837,1120.544,1199.277,1112.295,1305.489z"/>
<path style="fill:#174365;" d="M868.391,1033.726c-13.451-10.794-27.642-20.498-42.41-29.077l-0.026-0.015
	c-1.264-0.734-2.532-1.46-3.804-2.178l-0.007-0.004c-7.019-3.958-14.163-7.665-21.415-11.115l-0.018-0.008
	c-0.645-0.307-1.291-0.612-1.938-0.915l-0.072-0.034c-0.631-0.295-1.263-0.589-1.895-0.88l-0.128-0.059
	c-0.625-0.287-1.25-0.573-1.876-0.857l-0.127-0.057c-5.926-2.681-11.919-5.193-17.972-7.533l-0.146-0.057
	c-0.63-0.243-1.261-0.484-1.891-0.724l-0.165-0.062c-0.605-0.229-1.21-0.457-1.816-0.682l-0.321-0.119
	c-0.565-0.21-1.131-0.418-1.697-0.625l-0.428-0.157c-0.574-0.209-1.149-0.416-1.724-0.623l-0.253-0.09
	c-0.622-0.222-1.245-0.443-1.869-0.662l-0.134-0.047c-0.65-0.227-1.3-0.454-1.951-0.678l-0.076-0.026
	c-4.05-1.392-8.122-2.708-12.215-3.948l-0.216-0.066c-0.586-0.177-1.172-0.352-1.758-0.525l-0.391-0.116
	c-0.551-0.163-1.103-0.324-1.655-0.484l-0.507-0.147c-0.528-0.153-1.056-0.303-1.585-0.453l-0.582-0.165
	c-0.527-0.148-1.054-0.295-1.581-0.44l-0.533-0.147c-0.537-0.148-1.075-0.294-1.613-0.439l-0.558-0.15
	c-0.529-0.141-1.058-0.282-1.587-0.421l-0.551-0.144c-0.535-0.139-1.071-0.278-1.606-0.415l-0.535-0.136
	c-0.549-0.139-1.098-0.278-1.647-0.415l-0.353-0.087c-3.292-0.815-6.594-1.581-9.906-2.299l-0.474-0.103
	c-0.533-0.115-1.066-0.227-1.599-0.339l-0.59-0.125c-0.478-0.099-0.957-0.197-1.435-0.295l-0.815-0.166
	c-0.471-0.095-0.942-0.189-1.413-0.281l-0.731-0.144c-0.495-0.097-0.991-0.192-1.486-0.286l-0.733-0.139
	c-0.471-0.089-0.943-0.176-1.415-0.263l-0.832-0.152l-1.328-0.238l-0.957-0.168l-1.253-0.217l-0.878-0.148
	c-0.471-0.079-0.942-0.158-1.413-0.235l-0.689-0.112c-0.488-0.079-0.976-0.158-1.465-0.234l-0.916-0.142l-1.318-0.203l-0.779-0.115
	c-0.992-0.147-1.984-0.29-2.977-0.428l-0.592-0.083c-0.482-0.066-0.963-0.13-1.445-0.194l-0.767-0.103l-1.255-0.16l-1.031-0.131
	l-1.193-0.145l-1.012-0.121l-1.2-0.138l-1.085-0.122l-1.153-0.125l-1.067-0.113l-1.156-0.118l-1.129-0.112l-1.134-0.109l-1.05-0.097
	l-1.226-0.109l-1.048-0.089l-1.161-0.096l-1.079-0.084l-1.205-0.092l-1.031-0.073l-1.189-0.083l-1.18-0.076l-1.067-0.068
	c-0.737-0.045-1.474-0.087-2.211-0.127l-0.639-0.033c-0.535-0.028-1.071-0.055-1.607-0.081l-1.129-0.05l-1.085-0.047l-1.092-0.041
	l-1.244-0.045l-0.932-0.029l-1.319-0.039l-1.023-0.026l-1.196-0.027l-1.085-0.02l-1.208-0.019l-1.011-0.013l-1.293-0.011
	l-0.986-0.005l-1.238-0.002l-1.032,0l-1.227,0.007l-1.061,0.008l-1.221,0.016l-1,0.013c-0.581,0.01-1.161,0.022-1.741,0.034
	l-0.471,0.009c-0.742,0.017-1.483,0.036-2.225,0.058l-0.07,0.002c-0.763,0.023-1.525,0.049-2.287,0.077l-0.518,0.021
	c-0.576,0.022-1.153,0.045-1.728,0.07l-0.793,0.037c-0.485,0.022-0.97,0.044-1.455,0.069l-0.953,0.051l-1.316,0.072l-0.888,0.053
	c-0.463,0.028-0.926,0.055-1.389,0.085l-0.919,0.061c-0.456,0.031-0.914,0.062-1.37,0.095l-0.853,0.062
	c-0.46,0.034-0.92,0.069-1.38,0.105l-0.968,0.076l-1.264,0.106l-0.98,0.084l-1.299,0.117l-0.961,0.089l-1.304,0.127l-0.957,0.095
	c-0.451,0.046-0.902,0.094-1.352,0.142l-0.893,0.095c-0.543,0.059-1.086,0.121-1.628,0.183l-0.612,0.069
	c-0.753,0.087-1.507,0.177-2.26,0.27l-0.346,0.044c-0.623,0.077-1.246,0.156-1.868,0.237l-0.869,0.116
	c-0.465,0.061-0.93,0.123-1.395,0.187l-0.83,0.116c-0.48,0.067-0.96,0.135-1.439,0.204l-0.842,0.124
	c-0.461,0.068-0.923,0.136-1.385,0.206l-0.916,0.141l-1.308,0.204l-0.969,0.156l-1.315,0.216l-0.88,0.147
	c-0.451,0.076-0.904,0.154-1.355,0.232l-0.914,0.159c-0.457,0.081-0.914,0.163-1.371,0.245l-0.846,0.154
	c-0.458,0.084-0.915,0.17-1.373,0.255l-0.9,0.17c-0.461,0.088-0.922,0.178-1.382,0.268l-0.821,0.16
	c-0.506,0.1-1.013,0.203-1.519,0.306l-0.73,0.148c-0.737,0.152-1.473,0.305-2.21,0.462l0.01,0.054
	c-12.793,0.19-25.834,1.044-39.137,2.606c6.823,74.307,23.291,146.789,57.727,213.782c34.436,66.994,78.232,120.777,152.034,154.094
	c73.802,33.317,195.471,21.317,253.953-29.814C1000.777,1199.277,948.282,1097.837,868.391,1033.726z"/>
<ellipse style="fill:#174365;" cx="1060.66" cy="1733.912" rx="110.994" ry="25.44"/>
<path style="fill:#122F49;" d="M1536.349,964.19L1536.349,964.19c-0.679,0.34-0.934,0.267-1.668,0.116l-0.805-0.163
	c-0.482-0.098-0.964-0.196-1.445-0.291l-0.862-0.168c-0.45-0.088-0.9-0.176-1.35-0.262l-0.909-0.172
	c-0.452-0.085-0.903-0.169-1.355-0.252l-0.878-0.159l-1.336-0.238l-0.967-0.169l-1.238-0.212l-1.038-0.174l-1.196-0.196
	l-1.018-0.163l-1.278-0.2l-0.953-0.146l-1.245-0.186l-1.02-0.15l-1.319-0.187l-0.894-0.125c-0.456-0.063-0.912-0.123-1.369-0.184
	l-0.9-0.12c-0.591-0.076-1.181-0.151-1.772-0.224l-0.442-0.056c-0.751-0.092-1.503-0.182-2.255-0.269l-0.628-0.071
	c-0.536-0.061-1.072-0.122-1.607-0.18l-0.927-0.098l-1.318-0.138l-0.98-0.097l-1.28-0.125l-0.977-0.09l-1.29-0.117l-0.983-0.084
	l-1.257-0.105l-0.998-0.08l-1.282-0.097l-0.994-0.072l-1.269-0.087l-0.966-0.064l-1.28-0.079l-1.038-0.062l-1.203-0.066
	l-1.015-0.053l-1.289-0.062l-1.003-0.046c-0.516-0.022-1.033-0.043-1.55-0.063l-0.649-0.026c-0.586-0.021-1.172-0.04-1.758-0.059
	l-1.314-0.038c-0.486-0.013-0.972-0.027-1.459-0.038l-0.814-0.016c-0.481-0.01-0.962-0.02-1.443-0.028l-1.008-0.013l-1.217-0.016
	l-1.063-0.008l-1.226-0.007l-1.071,0l-1.137,0.002l-1.123,0.006l-1.2,0.01l-1.029,0.013l-1.208,0.019l-1.101,0.021l-1.094,0.025
	l-1.177,0.03l-1.095,0.032l-1.141,0.036l-1.125,0.041l-1.155,0.044l-1.093,0.048l-1.125,0.049l-1.175,0.059
	c-0.722,0.036-1.445,0.076-2.168,0.117l-1.111,0.064l-1.317,0.084l-0.882,0.057c-0.462,0.031-0.924,0.064-1.385,0.097l-0.875,0.062
	l-1.212,0.093l-1.079,0.084l-1.161,0.096l-1.048,0.089l-1.263,0.113l-0.95,0.087l-1.29,0.124l-0.943,0.093l-1.328,0.136
	l-0.877,0.093l-1.311,0.142l-1.004,0.113l-1.237,0.143l-0.909,0.109l-1.342,0.163l-0.867,0.11c-0.458,0.058-0.917,0.116-1.375,0.176
	l-0.577,0.077c-2.469,0.327-4.935,0.682-7.397,1.063l-0.817,0.126c-0.474,0.075-0.949,0.152-1.423,0.228l-0.739,0.12
	c-0.485,0.079-0.969,0.161-1.454,0.242l-0.776,0.131c-0.476,0.081-0.953,0.164-1.429,0.248l-0.758,0.133
	c-0.5,0.089-1,0.179-1.499,0.269l-0.658,0.12c-0.513,0.094-1.026,0.19-1.539,0.286l-0.654,0.124
	c-0.513,0.098-1.026,0.196-1.538,0.296l-0.637,0.125c-0.517,0.102-1.034,0.205-1.552,0.309l-0.601,0.122
	c-0.544,0.111-1.089,0.223-1.632,0.336l-0.405,0.086c-0.579,0.122-1.158,0.243-1.736,0.368l-0.474,0.103
	c-1.652,0.358-3.303,0.728-4.95,1.111c-1.648,0.383-3.293,0.777-4.936,1.184l-0.374,0.092c-0.582,0.145-1.164,0.292-1.746,0.44
	l-0.386,0.098c-0.596,0.152-1.191,0.306-1.787,0.462l-0.346,0.09c-0.573,0.151-1.146,0.302-1.719,0.456l-0.471,0.127
	c-0.558,0.151-1.116,0.302-1.674,0.455l-0.443,0.122c-0.563,0.155-1.125,0.312-1.688,0.471l-0.483,0.136
	c-0.551,0.156-1.102,0.313-1.653,0.471l-0.425,0.124c-0.588,0.17-1.177,0.342-1.764,0.515l-0.228,0.068
	c-0.625,0.185-1.25,0.371-1.875,0.56l-0.216,0.066c-2.038,0.618-4.072,1.254-6.1,1.909c-2.027,0.655-4.05,1.329-6.067,2.022
	l-0.138,0.047c-0.64,0.221-1.28,0.443-1.918,0.667l-0.16,0.056c-0.641,0.225-1.282,0.452-1.922,0.681l-0.146,0.052
	c-0.621,0.222-1.24,0.446-1.86,0.672l-0.259,0.094c-0.608,0.222-1.217,0.446-1.824,0.672l-0.229,0.085
	c-0.621,0.232-1.241,0.465-1.861,0.699l-0.165,0.062c-0.629,0.239-1.257,0.479-1.884,0.721l-0.172,0.067
	c-1.512,0.585-3.02,1.18-4.523,1.786c-3.008,1.212-6.001,2.467-8.977,3.763c-1.488,0.648-2.972,1.307-4.452,1.977l-0.127,0.057
	c-0.626,0.283-1.251,0.57-1.876,0.857l-0.128,0.059c-0.632,0.291-1.265,0.585-1.895,0.88l-0.072,0.034
	c-0.647,0.303-1.293,0.608-1.938,0.915l-0.018,0.008c-0.906,0.43-1.808,0.865-2.711,1.304c-1.203,0.585-2.403,1.18-3.6,1.78
	c-2.976,1.49-5.932,3.024-8.868,4.601c-1.194,0.642-2.386,1.288-3.573,1.943c-0.88,0.486-1.758,0.976-2.634,1.47l-0.056,0.031
	c-1.266,0.714-2.528,1.436-3.785,2.167l-0.026,0.015c-3.09,1.795-6.155,3.639-9.193,5.533c-2.025,1.262-4.038,2.547-6.039,3.852
	c-2.001,1.306-3.99,2.633-5.966,3.982c-0.988,0.674-1.973,1.354-2.954,2.039l-0.004,0.003
	c69.872-29.741,148.629-36.038,221.595-16.181c-16.991,73.754-42.091,139.151-81.197,202.64
	c-32.235,52.334-75.609,98.12-127.444,126.905c-58.149,16.777-119.621,6.774-171.842-27.932
	c58.481,51.132,180.15,63.132,253.953,29.815c73.802-33.317,117.597-87.1,152.033-154.094
	c34.436-66.993,50.905-139.475,57.727-213.782C1562.705,965.864,1549.142,964.38,1536.349,964.19z"/>
<path style="fill:#122F49;" d="M584.972,964.19c-12.793,0.19-26.356,1.674-39.659,3.237c6.823,74.307,23.291,146.789,57.727,213.782
	c26.422,51.404,58.356,95.029,105.126,127.6c14.184,9.878,29.733,18.741,46.907,26.494c73.802,33.317,195.471,21.317,253.953-29.815
	c-52.222,34.707-113.694,44.71-171.843,27.932c-51.835-28.785-95.208-74.57-127.444-126.905
	c-39.106-63.488-64.206-128.886-81.197-202.64c72.966-19.856,151.723-13.56,221.595,16.181l-0.003-0.003
	c-0.981-0.685-1.966-1.365-2.954-2.039c-1.976-1.349-3.965-2.676-5.966-3.982c-2.001-1.305-4.014-2.59-6.039-3.852
	c-3.038-1.893-6.103-3.738-9.193-5.533l-0.026-0.015c-1.257-0.73-2.519-1.453-3.785-2.167l-0.056-0.031
	c-0.876-0.494-1.754-0.984-2.634-1.47c-1.187-0.656-2.379-1.302-3.573-1.943c-2.936-1.577-5.892-3.111-8.868-4.601
	c-1.197-0.6-2.397-1.195-3.6-1.78c-0.902-0.439-1.805-0.874-2.71-1.304l-0.018-0.008c-0.645-0.307-1.291-0.612-1.938-0.915
	l-0.072-0.034c-0.63-0.295-1.263-0.589-1.895-0.88l-0.128-0.059c-0.625-0.287-1.25-0.573-1.876-0.857l-0.127-0.057
	c-1.48-0.669-2.964-1.328-4.452-1.977c-1.488-0.649-2.98-1.286-4.477-1.913c-1.496-0.627-2.996-1.244-4.501-1.85
	c-1.504-0.606-3.012-1.201-4.524-1.786l-0.172-0.067c-0.628-0.242-1.256-0.482-1.884-0.721l-0.165-0.062
	c-0.62-0.234-1.24-0.468-1.861-0.699l-0.229-0.085c-0.607-0.226-1.216-0.45-1.824-0.672l-0.259-0.094
	c-0.62-0.226-1.239-0.45-1.86-0.672l-0.146-0.052c-0.64-0.229-1.281-0.456-1.922-0.681l-0.16-0.056
	c-0.638-0.224-1.278-0.446-1.918-0.667l-0.138-0.047c-2.017-0.693-4.04-1.367-6.067-2.022c-2.028-0.655-4.062-1.292-6.1-1.909
	l-0.216-0.066c-0.625-0.189-1.25-0.375-1.875-0.56l-0.228-0.068c-0.588-0.173-1.176-0.345-1.764-0.515l-0.425-0.124
	c-0.551-0.158-1.102-0.315-1.653-0.471l-0.483-0.136c-0.562-0.159-1.125-0.315-1.688-0.471l-0.443-0.122
	c-0.558-0.153-1.116-0.304-1.674-0.455l-0.471-0.127c-0.573-0.153-1.146-0.305-1.719-0.456l-0.346-0.09
	c-0.595-0.156-1.191-0.31-1.787-0.462l-0.386-0.098c-0.583-0.148-1.165-0.295-1.749-0.44l-0.353-0.087
	c-3.292-0.815-6.594-1.581-9.906-2.299l-0.474-0.103c-0.578-0.125-1.157-0.246-1.736-0.368l-0.405-0.086
	c-0.544-0.113-1.089-0.225-1.632-0.336l-0.601-0.122c-0.517-0.104-1.034-0.207-1.552-0.309l-0.637-0.125
	c-0.512-0.1-1.025-0.199-1.538-0.296l-0.654-0.124c-0.512-0.096-1.025-0.192-1.539-0.286l-0.658-0.12
	c-0.499-0.09-0.999-0.181-1.499-0.269l-0.759-0.133c-0.477-0.084-0.954-0.167-1.432-0.248l-0.759-0.128
	c-0.493-0.083-0.986-0.166-1.478-0.246l-0.689-0.112c-0.49-0.079-0.98-0.158-1.471-0.236l-0.763-0.118
	c-1.204-0.187-2.408-0.366-3.614-0.54l-0.206-0.029c-1.206-0.173-2.414-0.34-3.622-0.5l-0.577-0.077
	c-0.458-0.06-0.917-0.118-1.375-0.176l-0.867-0.11c-0.451-0.056-0.901-0.11-1.351-0.164l-0.893-0.107l-1.259-0.145l-0.98-0.11
	l-1.327-0.144l-0.867-0.092l-1.331-0.136l-0.943-0.093l-1.29-0.124l-0.951-0.087l-1.263-0.113l-1.048-0.089l-1.161-0.096
	l-1.079-0.084l-1.212-0.093l-0.875-0.062c-0.462-0.033-0.924-0.066-1.385-0.097l-0.862-0.055l-1.34-0.085l-1.056-0.061
	c-0.74-0.042-1.48-0.083-2.22-0.12l-1.175-0.059l-1.132-0.05l-1.085-0.047l-1.162-0.044l-1.12-0.041l-1.141-0.036l-1.095-0.032
	l-1.177-0.03l-1.094-0.025l-1.101-0.021l-1.208-0.019l-1.029-0.013l-1.2-0.01l-1.122-0.006l-1.137-0.002l-1.071,0l-1.227,0.007
	l-1.061,0.008l-1.221,0.016l-1.004,0.013c-0.482,0.008-0.964,0.018-1.446,0.028l-0.812,0.016c-0.491,0.011-0.981,0.025-1.472,0.039
	l-1.275,0.037c-0.595,0.018-1.19,0.037-1.786,0.059l-0.631,0.026c-0.522,0.02-1.045,0.041-1.567,0.064l-1.003,0.046l-1.289,0.062
	l-1.015,0.053l-1.203,0.066l-1.036,0.061l-1.286,0.08l-0.957,0.063l-1.277,0.088l-0.991,0.072l-1.289,0.099l-0.988,0.078
	l-1.264,0.106l-0.98,0.084l-1.299,0.117l-0.961,0.089l-1.304,0.127l-0.957,0.095c-0.451,0.046-0.902,0.094-1.352,0.142l-0.893,0.095
	c-0.543,0.059-1.086,0.121-1.628,0.183l-0.612,0.069c-0.753,0.087-1.507,0.177-2.26,0.27l-0.346,0.044
	c-0.623,0.077-1.246,0.156-1.868,0.237l-0.869,0.116c-0.465,0.061-0.93,0.123-1.395,0.187l-0.884,0.124l-1.334,0.189l-0.993,0.146
	l-1.275,0.19l-0.926,0.142l-1.308,0.204l-0.991,0.159l-1.225,0.201l-1.011,0.169l-1.269,0.217l-0.938,0.163
	c-0.457,0.081-0.914,0.163-1.371,0.245l-0.846,0.154c-0.458,0.084-0.915,0.17-1.373,0.255l-0.9,0.17
	c-0.461,0.088-0.922,0.178-1.382,0.268l-0.821,0.16c-0.506,0.1-1.013,0.203-1.519,0.306L584.972,964.19"/>
<path style="fill:#71A62D;" d="M1835.766,425.765c0.303-1.772,0.566-3.557,0.788-5.356l0.055-0.451
	c0.302-2.533,0.523-5.091,0.66-7.672l0.011-0.21c0.102-1.995,0.154-4.003,0.154-6.022c0-0.64-0.006-1.278-0.017-1.915l-0.008-0.428
	c-0.01-0.534-0.024-1.067-0.042-1.598l-0.011-0.335c-0.023-0.635-0.051-1.268-0.084-1.901l-0.016-0.286
	c-0.029-0.534-0.062-1.067-0.099-1.598l-0.033-0.47c-0.044-0.611-0.092-1.22-0.146-1.829l-0.002-0.018
	c-0.055-0.627-0.118-1.252-0.183-1.876l-0.045-0.416c-0.057-0.526-0.117-1.051-0.181-1.575l-0.036-0.302
	c-0.079-0.634-0.164-1.267-0.252-1.897l-0.021-0.146c-0.081-0.568-0.168-1.136-0.257-1.701l-0.059-0.375
	c-0.2-1.243-0.421-2.48-0.66-3.709l-0.055-0.279c-0.109-0.554-0.223-1.105-0.339-1.657l-0.048-0.227
	c-0.135-0.628-0.275-1.254-0.42-1.879l-0.01-0.042c-0.139-0.598-0.283-1.194-0.432-1.788l-0.066-0.261
	c-0.31-1.23-0.64-2.454-0.988-3.668l-0.057-0.195c-0.159-0.549-0.321-1.095-0.487-1.641l-0.071-0.232
	c-0.373-1.212-0.766-2.416-1.177-3.612l-0.062-0.181c-0.42-1.213-0.859-2.418-1.317-3.612l-0.023-0.058
	c-0.228-0.592-0.459-1.182-0.697-1.769l-0.021-0.053c-0.484-1.197-0.987-2.384-1.509-3.561l-0.05-0.112
	c-0.791-1.778-1.624-3.531-2.5-5.26l-0.008-0.017c-0.27-0.532-0.544-1.06-0.822-1.588l-0.165-0.313
	c-0.268-0.505-0.539-1.008-0.814-1.509l-0.168-0.304c-0.251-0.453-0.504-0.904-0.76-1.354l-0.139-0.245
	c-0.276-0.482-0.556-0.96-0.84-1.436l-0.245-0.413c-0.275-0.459-0.551-0.917-0.832-1.371v0.001c0.148,2.393,0.223,4.805,0.223,7.237
	c0,64.23-52.068,116.298-116.298,116.298c-41.848,0-78.532-22.106-99.019-55.274l-0.005-0.009c0.028,0.451,0.058,0.901,0.091,1.351
	l0.006,0.09l0.096,1.203l0.021,0.258l0.11,1.195l0.02,0.215l0.117,1.128l0.036,0.329l0.13,1.114l0.033,0.276l0.148,1.146
	l0.035,0.265l0.161,1.137l0.04,0.275l0.168,1.092l0.051,0.327l0.181,1.089l0.05,0.29l0.193,1.083l0.061,0.329l0.207,1.081
	l0.051,0.262l0.225,1.108l0.059,0.281l0.243,1.121l0.044,0.198l0.267,1.167l0.044,0.189l0.281,1.164l0.05,0.202l0.294,1.155
	l0.045,0.17l0.315,1.181l0.035,0.126c0.332,1.209,0.682,2.411,1.052,3.604c0.554,1.79,1.15,3.561,1.787,5.313
	c0.425,1.168,0.868,2.327,1.328,3.477c0.23,0.575,0.465,1.147,0.704,1.718l0.021,0.05l0.461,1.081l0.095,0.22l0.459,1.041
	l0.089,0.199l0.474,1.043l0.096,0.208l0.474,1.009l0.116,0.245l0.454,0.94l0.159,0.323l0.453,0.909l0.152,0.3l0.483,0.942
	l0.137,0.263l0.492,0.933l0.152,0.283l0.497,0.916l0.158,0.287l0.511,0.915l0.152,0.268l0.519,0.906l0.162,0.278l0.541,0.919
	l0.131,0.219l0.568,0.94l0.155,0.252l0.553,0.89l0.173,0.273l0.581,0.911l0.075,0.116l0.665,1.017l0.088,0.132l0.659,0.984
	l0.119,0.174c0.386,0.568,0.779,1.132,1.175,1.692l0.628,0.881c0.461,0.641,0.929,1.276,1.403,1.907
	c0.456,0.607,0.917,1.21,1.385,1.808c0.533,0.681,1.073,1.356,1.621,2.024l0.148,0.182l0.675,0.812l0.194,0.232l0.726,0.854
	l0.14,0.163l0.698,0.802l0.213,0.242l0.676,0.757l0.228,0.253l0.688,0.755l0.225,0.245l0.68,0.728l0.263,0.279l0.646,0.675
	l0.316,0.328l0.624,0.638l0.326,0.33l0.632,0.632l0.342,0.337l0.634,0.619l0.325,0.313l0.668,0.64l0.308,0.29l0.688,0.641
	l0.313,0.288l0.676,0.616l0.354,0.318l0.665,0.593l0.33,0.288l0.707,0.617l0.295,0.252l0.747,0.635l0.283,0.236l0.752,0.626
	l0.298,0.242l0.774,0.628l0.206,0.164l0.86,0.681l0.149,0.116c1.695,1.324,3.427,2.603,5.196,3.833l0.087,0.061l0.873,0.599
	l0.256,0.175l0.865,0.579l0.263,0.176l0.803,0.523l0.359,0.234l0.743,0.472l0.419,0.265l0.762,0.473l0.387,0.238l0.793,0.479
	l0.386,0.231l0.759,0.447l0.447,0.26l0.694,0.398l0.508,0.288l0.718,0.4l0.464,0.256l0.752,0.408l0.463,0.247l0.739,0.39l0.481,0.25
	l0.745,0.382l0.492,0.249l0.734,0.365l0.493,0.241l0.759,0.367l0.474,0.224l0.767,0.36l0.503,0.231l0.749,0.34l0.522,0.232
	l0.744,0.328l0.494,0.212l0.786,0.336l0.508,0.211l0.763,0.314l0.498,0.2l0.811,0.323l0.422,0.164l0.864,0.332l0.441,0.165
	l0.873,0.324l0.311,0.112l0.99,0.354l0.285,0.099c1.137,0.397,2.282,0.776,3.435,1.138l0.208,0.066l0.905,0.276l0.439,0.134
	l0.816,0.238l0.537,0.156l0.782,0.219l0.57,0.158l0.801,0.214l0.554,0.146l0.834,0.212l0.521,0.13l0.835,0.201l0.553,0.131
	l0.773,0.177l0.618,0.139l0.784,0.169l0.591,0.124l0.78,0.159l0.631,0.125l0.769,0.146l0.609,0.113l0.788,0.14l0.636,0.11
	l0.76,0.126l0.656,0.104l0.769,0.118l0.612,0.09l0.821,0.116l0.595,0.079l0.828,0.106l0.631,0.076l0.758,0.088l0.687,0.074
	l0.779,0.08l0.629,0.06l0.792,0.072l0.71,0.058l0.723,0.058l0.7,0.048l0.78,0.052l0.612,0.035l0.831,0.046l0.663,0.029l0.796,0.034
	l0.726,0.023l0.726,0.022l0.659,0.013c0.759,0.015,1.519,0.024,2.28,0.024c2.02,0,4.028-0.052,6.022-0.154l0.21-0.011
	c2.58-0.137,5.138-0.358,7.672-0.66l0.481-0.059c1.788-0.221,3.564-0.483,5.326-0.784l0.624-0.108c1.2-0.212,2.394-0.44,3.582-0.688
	c2.573-0.538,5.115-1.161,7.622-1.866l0.611-0.173c1.135-0.326,2.264-0.669,3.385-1.028c1.682-0.539,3.347-1.115,4.994-1.727
	c1.647-0.612,3.277-1.261,4.888-1.945c4.296-1.824,8.46-3.898,12.473-6.206c0.609-0.35,1.214-0.706,1.816-1.067
	c1.203-0.721,2.393-1.464,3.568-2.227c0.587-0.382,1.171-0.768,1.751-1.16c0.773-0.523,1.54-1.054,2.3-1.594
	c0.76-0.541,1.513-1.09,2.26-1.648l1.115-0.844c0.739-0.567,1.471-1.142,2.197-1.726l1.082-0.883
	c1.077-0.889,2.138-1.797,3.182-2.723l1.039-0.932c1.032-0.939,2.048-1.896,3.046-2.87c0.666-0.65,1.324-1.308,1.973-1.973
	c0.974-0.998,1.931-2.014,2.87-3.046l0.932-1.039c0.926-1.044,1.834-2.104,2.723-3.181l0.882-1.082
	c0.584-0.725,1.16-1.458,1.726-2.197l0.844-1.114c0.558-0.746,1.108-1.499,1.648-2.26c0.54-0.76,1.072-1.527,1.594-2.3
	c1.567-2.32,3.053-4.7,4.454-7.135c2.308-4.013,4.382-8.177,6.206-12.473c0.684-1.611,1.333-3.241,1.945-4.888
	s1.188-3.312,1.728-4.993c0.359-1.12,0.702-2.25,1.028-3.385l0.173-0.611c0.705-2.507,1.328-5.049,1.866-7.622
	c0.248-1.187,0.476-2.382,0.688-3.582L1835.766,425.765z"/>
<ellipse style="fill:#C1D229;" cx="1725.726" cy="350.528" rx="59.898" ry="42.628"/>
<path style="fill:#71A62D;" d="M417.237,468.576c-64.23,0-116.298-52.069-116.298-116.298c0-2.431,0.075-4.844,0.223-7.237v-0.001
	l-0.021,0.034l-0.136,0.223l-0.759,1.255l-0.291,0.493l-0.618,1.059l-0.28,0.486c-0.283,0.497-0.564,0.996-0.84,1.498l-0.021,0.039
	c-0.621,1.13-1.223,2.27-1.807,3.422l-0.038,0.076l-0.64,1.285c-0.422,0.86-0.833,1.726-1.234,2.597l-0.594,1.311l-0.076,0.172
	c-0.514,1.159-1.009,2.329-1.486,3.508l-0.048,0.119c-0.225,0.559-0.446,1.121-0.663,1.684l-0.049,0.126
	c-0.451,1.177-0.883,2.362-1.296,3.556l-0.085,0.245c-0.405,1.177-0.791,2.363-1.159,3.556l-0.092,0.301
	c-0.157,0.516-0.311,1.032-0.461,1.551l-0.077,0.266c-0.173,0.603-0.342,1.207-0.506,1.814l-0.021,0.082
	c-0.153,0.569-0.301,1.141-0.445,1.713l-0.082,0.328c-0.14,0.56-0.275,1.12-0.407,1.684l-0.032,0.135
	c-0.142,0.609-0.277,1.219-0.409,1.832l-0.064,0.301c-0.11,0.52-0.217,1.041-0.32,1.564l-0.069,0.351
	c-0.119,0.611-0.234,1.223-0.343,1.836l-0.017,0.093c-0.101,0.572-0.197,1.146-0.29,1.72l-0.071,0.444
	c-0.083,0.53-0.164,1.062-0.241,1.594l-0.035,0.239c-0.087,0.615-0.169,1.232-0.246,1.85l-0.046,0.383
	c-0.059,0.491-0.116,0.983-0.17,1.476l-0.052,0.487c-0.064,0.608-0.124,1.217-0.178,1.827l-0.012,0.145
	c-0.049,0.563-0.093,1.126-0.134,1.691l-0.038,0.539c-0.034,0.498-0.065,0.997-0.092,1.496l-0.021,0.374
	c-0.032,0.616-0.059,1.234-0.082,1.853l-0.013,0.418c-0.017,0.498-0.029,0.997-0.039,1.498l-0.01,0.499
	c-0.01,0.628-0.016,1.255-0.016,1.885c0,6.523,0.537,12.921,1.569,19.151c0.08,0.48,0.162,0.958,0.247,1.435
	c0.341,1.909,0.729,3.802,1.162,5.678c0.324,1.407,0.675,2.803,1.05,4.19c0.25,0.924,0.511,1.844,0.784,2.759
	c1.906,6.406,4.348,12.581,7.276,18.472c0.419,0.842,0.846,1.677,1.284,2.508c0.657,1.245,1.336,2.476,2.036,3.694
	c0.7,1.217,1.422,2.422,2.165,3.611c0.495,0.793,0.999,1.579,1.512,2.359c0.77,1.17,1.561,2.325,2.372,3.465
	c0.811,1.141,1.641,2.265,2.492,3.374c0.85,1.109,1.72,2.203,2.609,3.279c0.889,1.077,1.796,2.138,2.723,3.181
	c1.852,2.088,3.779,4.108,5.775,6.058c4.659,4.548,9.697,8.709,15.064,12.43l1.155,0.791c0.58,0.392,1.164,0.778,1.751,1.16
	c1.175,0.763,2.364,1.506,3.568,2.227c0.602,0.361,1.207,0.717,1.816,1.067c3.01,1.73,6.105,3.33,9.276,4.792
	c1.057,0.486,2.123,0.958,3.197,1.414c1.611,0.683,3.241,1.333,4.888,1.945c1.466,0.545,2.948,1.059,4.442,1.546
	c0.743,0.242,1.489,0.48,2.239,0.708c0.564,0.171,1.13,0.338,1.698,0.501l0.693,0.197c1.251,0.35,2.51,0.68,3.777,0.99
	c1.267,0.309,2.542,0.598,3.826,0.865c1.283,0.268,2.574,0.514,3.872,0.739c1.298,0.226,2.604,0.429,3.916,0.61
	c0.656,0.091,1.314,0.176,1.974,0.256c1.32,0.16,2.646,0.297,3.978,0.412c3.332,0.287,6.704,0.433,10.11,0.433
	c0.762,0,1.522-0.009,2.28-0.024l0.659-0.013l0.726-0.022l0.726-0.023l0.796-0.034l0.663-0.029l0.831-0.046l0.612-0.035l0.78-0.052
	l0.7-0.048l0.723-0.058l0.71-0.058l0.792-0.072l0.629-0.06l0.779-0.08l0.686-0.074l0.758-0.088l0.632-0.076l0.828-0.106l0.595-0.079
	l0.821-0.116l0.612-0.09l0.769-0.118l0.656-0.104l0.76-0.126l0.636-0.11l0.788-0.14l0.609-0.113l0.769-0.146l0.631-0.125l0.78-0.159
	l0.591-0.124l0.784-0.169l0.618-0.139l0.773-0.177l0.553-0.131l0.835-0.201l0.521-0.13l0.834-0.212l0.554-0.146l0.801-0.214
	l0.57-0.158l0.782-0.219l0.537-0.156l0.816-0.238l0.439-0.134l0.905-0.276l0.208-0.066c1.153-0.362,2.298-0.741,3.435-1.138
	l0.285-0.099l0.99-0.354l0.311-0.112l0.874-0.324l0.441-0.165l0.863-0.332l0.422-0.164l0.811-0.323l0.498-0.2l0.763-0.314
	l0.508-0.211l0.786-0.336l0.493-0.212l0.744-0.328l0.522-0.232l0.749-0.34l0.503-0.231l0.767-0.36l0.474-0.224l0.759-0.367
	l0.493-0.241l0.734-0.365l0.492-0.249l0.745-0.382l0.481-0.25l0.739-0.39l0.462-0.247l0.752-0.408l0.464-0.256l0.718-0.4
	l0.508-0.288l0.695-0.398l0.447-0.26l0.759-0.447l0.386-0.231l0.793-0.479l0.387-0.238l0.762-0.473l0.419-0.265l0.743-0.472
	l0.359-0.234l0.803-0.523l0.264-0.176l0.865-0.579l0.256-0.175l0.873-0.599l0.087-0.061c1.768-1.23,3.501-2.509,5.196-3.833
	l0.149-0.116l0.86-0.681l0.206-0.164l0.774-0.628l0.298-0.242l0.752-0.626l0.283-0.236l0.747-0.635l0.295-0.252l0.707-0.617
	l0.33-0.288l0.665-0.593l0.354-0.318l0.676-0.616l0.313-0.288l0.688-0.641l0.308-0.29l0.669-0.64l0.325-0.313l0.634-0.619
	l0.342-0.337l0.632-0.632l0.326-0.33l0.624-0.638l0.316-0.328l0.646-0.675l0.263-0.279l0.68-0.728l0.226-0.245l0.688-0.755
	l0.227-0.253l0.676-0.757l0.212-0.242l0.698-0.802l0.14-0.163l0.726-0.854l0.194-0.232l0.675-0.812l0.149-0.182
	c0.548-0.668,1.088-1.343,1.621-2.024c0.646-0.825,1.28-1.661,1.904-2.504l0.884-1.211l0.628-0.881
	c0.397-0.561,0.789-1.124,1.175-1.692l0.119-0.174l0.659-0.984l0.088-0.132l0.664-1.017l0.075-0.116l0.581-0.911l0.173-0.273
	l0.553-0.89l0.155-0.252l0.568-0.94l0.131-0.219l0.541-0.919l0.162-0.278l0.519-0.906l0.152-0.268l0.511-0.915l0.159-0.287
	l0.497-0.916l0.152-0.283l0.492-0.933l0.137-0.263l0.483-0.942l0.152-0.3l0.453-0.909l0.159-0.323l0.454-0.94l0.116-0.245
	l0.474-1.009l0.096-0.208l0.474-1.043l0.089-0.199l0.459-1.041l0.095-0.22l0.461-1.081l0.021-0.05
	c0.24-0.571,0.474-1.143,0.704-1.718c0.461-1.15,0.904-2.309,1.328-3.477c0.637-1.752,1.233-3.523,1.787-5.313
	c0.37-1.193,0.72-2.395,1.052-3.604l0.035-0.126l0.315-1.181l0.044-0.17l0.294-1.155l0.05-0.202l0.281-1.164l0.044-0.189
	l0.267-1.167l0.044-0.198l0.242-1.121l0.059-0.281l0.225-1.108l0.051-0.262l0.207-1.081l0.061-0.329l0.193-1.083l0.05-0.29
	l0.181-1.089l0.051-0.327l0.168-1.092l0.04-0.275l0.161-1.137l0.035-0.265l0.148-1.146l0.033-0.276l0.13-1.114l0.036-0.329
	l0.117-1.128l0.02-0.215l0.11-1.195l0.021-0.258l0.096-1.203l0.006-0.09c0.033-0.45,0.063-0.9,0.091-1.351l-0.005,0.009
	C495.768,446.47,459.085,468.576,417.237,468.576z"/>
<ellipse style="fill:#C1D229;" cx="395.594" cy="350.528" rx="59.898" ry="42.628"/>
<ellipse transform="matrix(0.3502 -0.9367 0.9367 0.3502 58.7015 1614.179)" style="fill:#A4C959;" cx="1192.815" cy="764.779" rx="133.505" ry="217.485"/>
<ellipse transform="matrix(0.3502 -0.9367 0.9367 0.3502 83.3652 1570.171)" style="fill:#C3D98A;" cx="1173.43" cy="724.998" rx="77.525" ry="126.293"/>
<path style="fill:#65A730;" d="M901.934,1834.99c-86.123-47.351-152.521-127.222-183.588-227.836
	c-18.561-60-23.747-124.023-21.518-187.028c1.349-37.506,6.443-74.4,11.338-111.316c-46.77-32.571-78.704-76.196-105.126-127.6
	c-34.436-66.993-50.905-139.475-57.727-213.782c13.303-1.563,26.866-3.047,39.659-3.237c0.736-0.157,0.94,0.266,1.677,0.114
	l0.73-0.148c0.506-0.103,1.013-0.206,1.519-0.306l0.821-0.16c0.46-0.09,0.921-0.18,1.382-0.268l0.9-0.17
	c0.458-0.086,0.915-0.172,1.373-0.255l0.846-0.154c0.457-0.082,0.914-0.164,1.371-0.245l0.938-0.163l1.269-0.217l1.011-0.169
	l1.225-0.201l0.991-0.159l1.308-0.204l0.926-0.142l1.275-0.19l0.993-0.146l1.334-0.189l0.884-0.124
	c0.465-0.064,0.93-0.126,1.395-0.187l0.869-0.116c0.623-0.081,1.246-0.16,1.868-0.237l0.346-0.044
	c0.753-0.093,1.507-0.183,2.26-0.27l0.538-0.06c-0.598-1.85-1.168-3.716-1.699-5.603c-28.74-102.311,48.369-213.2,111.422-279.84
	c12.359-13.037,25.299-25.396,38.724-36.882c-60.096,36.01-114.137,84.136-157.562,142.44
	c-122.181,164.008-155.913,402.216-84.815,599.326c66.786,185.186,264.623,533.799,539.567,533.799
	c49.241,0,95.477-10.323,138.708-28.352C1098.462,1900.952,993.146,1885.103,901.934,1834.99z"/>
<path style="fill:#4E8D32;" d="M1576.081,966.809c-13.106-1.542-26.295-2.419-39.201-2.612l-0.531-0.007l-0.092,0.521
	c-1.036,5.803-2.137,11.615-3.267,17.276c-0.46,2.292-0.928,4.577-1.403,6.857c-1.189,5.695-2.448,11.401-3.739,16.957
	c-0.521,2.243-1.055,4.485-1.595,6.716c-0.541,2.231-1.089,4.456-1.649,6.675c-1.386,5.508-2.86,11.072-4.382,16.538
	c-1.106,3.983-2.268,8.017-3.552,12.326l-0.451,1.503c-0.499,1.664-1.006,3.32-1.52,4.974c-0.746,2.414-1.506,4.823-2.281,7.228
	c-1.937,6.012-3.997,12.1-6.124,18.09l-0.814,2.275c-1.647,4.588-3.381,9.24-5.152,13.827c-0.682,1.761-1.369,3.523-2.066,5.279
	c-0.502,1.26-1.001,2.516-1.51,3.774l-1.04,2.555c-8.836,21.591-19.077,43.062-30.441,63.82c-2.986,5.456-6.158,10.962-9.425,16.362
	c-1.203,1.991-2.427,3.969-3.661,5.94c-0.999,1.593-2.01,3.184-3.03,4.765c-0.634,0.981-1.269,1.956-1.91,2.928
	c-1.282,1.949-2.58,3.885-3.893,5.81c-7.289,10.677-15.055,20.962-23.079,30.568c-2.195,2.631-4.475,5.284-6.772,7.883
	c-1.128,1.279-2.266,2.543-3.408,3.801l-1.491,1.632c-0.998,1.084-2.002,2.161-3.011,3.235c-0.504,0.533-1.011,1.067-1.518,1.598
	c-1.559,1.632-3.133,3.247-4.719,4.845c-1.615,1.624-3.245,3.235-4.889,4.828c-0.824,0.794-1.649,1.586-2.478,2.373
	c-1.661,1.572-3.333,3.128-5.021,4.663c-1.688,1.532-3.391,3.05-5.103,4.546c-0.646,0.563-1.291,1.121-1.939,1.676
	c-1.296,1.11-2.597,2.209-3.905,3.298c-0.658,0.546-1.316,1.084-1.973,1.625c-0.88,0.716-1.761,1.43-2.648,2.136
	c-1.33,1.062-2.668,2.109-4.01,3.148c-1.344,1.038-2.696,2.065-4.056,3.077c-4.543,3.386-9.203,6.655-13.854,9.715
	c-4.702,3.099-9.532,6.073-14.356,8.845c-0.972,0.56-1.949,1.113-2.928,1.659c-1.715,0.96-3.442,1.898-5.177,2.818
	c-5.216,2.762-10.558,5.364-15.878,7.732c-0.548,0.246-1.096,0.487-1.649,0.726l-11.941,4.775c-0.536,0.195-1.074,0.39-1.617,0.582
	c-0.992,0.351-1.983,0.696-2.979,1.035c-2.921,0.989-5.913,1.927-8.896,2.789l-0.09,0.025
	c-58.195,16.796-119.04,6.899-171.325-27.852l-0.755,0.989c35.934,31.42,97.216,48.726,156.672,48.726
	c35.157,0,69.678-6.051,97.947-18.814c65.724-29.671,112.706-77.281,152.333-154.378c31.247-60.789,50.151-130.792,57.792-214.01
	l0.056-0.604L1576.081,966.809z"/>
<path style="fill:#4E8D32;" d="M1008.679,1304.969c-52.287,34.748-113.13,44.638-171.323,27.852l-0.026-0.008
	c-0.563-0.161-1.125-0.326-1.691-0.494c-1.713-0.512-3.422-1.045-5.128-1.6c-1.705-0.558-3.408-1.138-5.179-1.766l-1.545-0.558
	l-11.971-4.784c-0.546-0.237-1.089-0.477-1.634-0.721c-4.429-1.971-8.894-4.115-13.269-6.368l-1.866-0.974
	c-1.986-1.043-3.959-2.112-5.919-3.208c-0.979-0.546-1.956-1.099-2.931-1.659c-1.947-1.119-3.881-2.263-5.8-3.43
	c-2.853-1.735-5.732-3.557-8.553-5.416c-1.883-1.24-3.749-2.501-5.603-3.783c-2.726-1.888-5.503-3.883-8.251-5.932
	c-12.441-9.27-24.56-19.825-36.022-31.369c-2.414-2.431-4.826-4.936-7.172-7.442c-0.789-0.841-1.569-1.683-2.346-2.529
	c-1.559-1.698-3.101-3.411-4.628-5.14c-10.512-11.892-20.555-24.83-29.851-38.45c-1.313-1.924-2.612-3.861-3.893-5.81
	c-1.281-1.947-2.548-3.906-3.798-5.874c-3.104-4.892-6.159-9.929-9.075-14.967c-1.171-2.022-2.324-4.051-3.459-6.09
	c-0.57-1.018-1.135-2.042-1.696-3.064c-3.393-6.195-6.731-12.538-9.92-18.853c-0.908-1.798-1.807-3.598-2.694-5.401
	c-1.786-3.62-3.54-7.264-5.213-10.833c-1.277-2.711-2.526-5.43-3.756-8.149c-2.307-5.106-4.594-10.355-6.796-15.6
	c-1.43-3.408-2.853-6.896-4.354-10.665c-0.507-1.269-1.009-2.546-1.506-3.817c-0.57-1.464-1.138-2.926-1.698-4.39
	c-0.801-2.107-1.596-4.222-2.378-6.336c-1.552-4.2-3.081-8.485-4.55-12.736c-0.736-2.134-1.459-4.268-2.175-6.407
	c-0.444-1.332-0.884-2.667-1.321-4.007c-0.528-1.62-1.052-3.245-1.569-4.877c-0.77-2.412-1.523-4.831-2.263-7.257
	c-0.66-2.163-1.313-4.332-1.949-6.507c-0.57-1.934-1.13-3.871-1.681-5.81c-0.38-1.333-0.757-2.67-1.128-4.01
	c-1.206-4.331-2.397-8.777-3.537-13.21c-0.568-2.215-1.128-4.431-1.676-6.658c-0.497-2.012-0.986-4.027-1.469-6.046
	c-0.317-1.338-0.633-2.673-0.945-4.012l-0.775-3.372c-2.772-12.178-5.342-24.87-7.635-37.72l-0.092-0.521l-0.531,0.007
	c-12.906,0.193-26.095,1.07-39.201,2.612l-0.604,0.07l0.056,0.604c7.642,83.218,26.546,153.221,57.793,214.01
	c29.754,57.89,63.223,98.507,105.325,127.827c14.434,10.053,30.251,18.987,47.009,26.551c28.27,12.765,62.782,18.816,97.946,18.814
	c59.452-0.002,120.738-17.308,156.672-48.726L1008.679,1304.969z"/>
<path style="fill:#2B6795;" d="M1239.309,1142.338c15.098,13.136,43.128,3.172,62.608-22.253
	c19.479-25.425,23.031-56.685,7.933-69.821c-15.098-13.135-43.129-3.172-62.608,22.253
	C1227.762,1097.943,1224.211,1129.203,1239.309,1142.338z"/>
<path style="fill:#2B6795;" d="M1327.897,1080.602c7.922,6.893,22.632,1.665,32.853-11.677
	c10.222-13.342,12.085-29.746,4.163-36.639c-7.923-6.893-22.632-1.665-32.854,11.677
	C1321.838,1057.305,1319.974,1073.709,1327.897,1080.602z"/>
<path style="fill:#2B6795;" d="M890.719,1142.338c15.098-13.135,11.547-44.395-7.933-69.82
	c-19.479-25.426-47.509-35.388-62.607-22.253c-15.098,13.136-11.547,44.395,7.932,69.821
	C847.59,1145.511,875.62,1155.474,890.719,1142.338z"/>
<path style="fill:#2B6795;" d="M802.13,1080.602c7.923-6.893,6.059-23.296-4.162-36.638c-10.222-13.342-24.931-18.57-32.854-11.677
	c-7.923,6.893-6.059,23.296,4.163,36.639C779.499,1082.266,794.208,1087.494,802.13,1080.602z"/>
<path style="fill:#122F49;" d="M1171.654,1733.912l-0.016-0.426l-0.008-0.095l-0.045-0.378l-0.006-0.048l-0.084-0.425l-0.021-0.084
	l-0.095-0.346l-0.028-0.093l-0.147-0.415l-0.022-0.052l-0.16-0.369l-0.043-0.09l-0.461-0.831l-0.053-0.083l-0.258-0.383l-0.02-0.028
	l-0.319-0.423l-0.044-0.054l-0.311-0.373l-0.048-0.056l-0.796-0.832l-0.057-0.055l-0.93-0.83l-0.042-0.034l-0.508-0.408
	l-0.005-0.005l-0.563-0.423l-0.011-0.009l-0.586-0.414l-0.01-0.006l-0.646-0.43l-0.197-0.125l-0.49-0.306l-0.238-0.145l-0.501-0.294
	l-0.23-0.134l-0.709-0.394l-0.292-0.155l-0.49-0.257l-0.322-0.165l-0.516-0.258l-0.32-0.157l-0.582-0.276l-0.408-0.19l-0.697-0.315
	l-0.328-0.143l-0.608-0.262l-0.354-0.149l-0.566-0.233l-0.413-0.168l-0.914-0.36l-0.298-0.113l-0.694-0.261l-0.434-0.159
	l-0.294-0.108l0,0.003c0.168,0.572,0.255,1.15,0.255,1.732c0,14.051-49.693,25.44-110.993,25.44
	c-39.436,0-74.065-4.713-93.754-11.817l0,0l0.007,0.023l0.092,0.285l0.002,0.005l0.112,0.3l0.008,0.02l0.167,0.383l0.406,0.759
	c0.38,0.63,0.86,1.253,1.437,1.868v0l0.582,0.585l0.007,0.007l0.289,0.268l0.038,0.034l0.281,0.248l0.055,0.048l0.304,0.255
	l0.038,0.032l0.301,0.242l0.08,0.064l0.295,0.227l0.077,0.058l0.324,0.238l0.065,0.047l0.331,0.234l0.082,0.057l0.346,0.235
	l0.068,0.045l0.362,0.236l0.074,0.048l0.385,0.242l0.042,0.026l0.414,0.252l0.06,0.035l0.421,0.247l0.029,0.017l1.225,0.677
	c0.422,0.224,0.858,0.446,1.307,0.667c0.898,0.441,1.85,0.875,2.854,1.302l0.07,0.03l0.478,0.2l0.164,0.068l0.498,0.203l0.12,0.048
	l0.538,0.213l0.115,0.045l0.542,0.209l0.119,0.045l0.501,0.189l0.219,0.081l0.456,0.167l0.221,0.08l0.486,0.174l0.235,0.083
	l0.429,0.15l0.333,0.114l0.398,0.135l0.301,0.101l0.491,0.163l0.185,0.06l0.574,0.185l0.179,0.057l0.574,0.181l0.179,0.056
	l0.609,0.188l0.158,0.048l0.578,0.174l0.303,0.09l0.522,0.153l0.231,0.067l0.547,0.157l0.323,0.091l0.533,0.15l0.058,0.016
	c0.716,0.198,1.446,0.394,2.188,0.586l1.138,0.292l0.232,0.058l0.644,0.16l0.498,0.122l0.362,0.088l0.774,0.184l0.093,0.022
	l0.749,0.175l0.171,0.04l0.557,0.127l0.446,0.101l0.417,0.093l0.497,0.11l0.61,0.133l0.252,0.054l0.643,0.137l0.412,0.087
	l0.43,0.089l0.56,0.115l0.465,0.094l0.465,0.094l0.541,0.107l0.443,0.087l0.545,0.106l0.482,0.092l0.479,0.091l0.553,0.103
	l0.492,0.091l0.472,0.087l0.55,0.099l0.539,0.096l0.467,0.082l0.679,0.118l0.325,0.056l0.732,0.124l0.344,0.058l0.739,0.122
	l0.325,0.053l0.573,0.092l0.561,0.09l0.395,0.062l0.641,0.101l0.624,0.095l0.504,0.076c1.083,0.164,2.18,0.322,3.289,0.477
	l0.401,0.055l0.755,0.104l0.222,0.03l0.967,0.129l0.062,0.008l1.056,0.137l0.286,0.036l0.851,0.107l0.342,0.042l0.849,0.104
	l0.263,0.032l0.924,0.11l0.26,0.03l0.944,0.109l0.217,0.025l1.035,0.116l0.114,0.013l0.999,0.109l0.345,0.037l0.78,0.082
	l0.509,0.052l0.683,0.07l0.479,0.048l0.825,0.081l0.371,0.036l1.09,0.104l0.027,0.002l1.083,0.1l0.258,0.023l0.987,0.087
	l0.249,0.022l1.11,0.095l0.122,0.01c3.376,0.283,6.828,0.53,10.349,0.738l0.26,0.015c0.798,0.047,1.599,0.091,2.404,0.134
	l0.294,0.016l0.989,0.051l0.479,0.023l0.81,0.039l0.525,0.024l0.922,0.042l0.223,0.01l1.209,0.051l0.066,0.003l1.201,0.047
	l0.298,0.011l1.197,0.044l0.014,0c0.885,0.031,1.773,0.059,2.665,0.085l0.179,0.006l1.248,0.034l0.104,0.003l1.093,0.027l0.428,0.01
	l1.14,0.025l0.122,0.002c3.268,0.066,6.575,0.101,9.919,0.101c15.28,0,29.837-0.708,43.085-1.988
	c0.455-0.044,0.908-0.088,1.36-0.134c5.773-0.579,11.29-1.267,16.501-2.054c0.745-0.112,1.483-0.226,2.215-0.343
	c4.313-0.686,8.404-1.439,12.243-2.254l0.416-0.089c0.843-0.181,1.673-0.365,2.49-0.551l1.111-0.256
	c0.62-0.146,1.233-0.293,1.838-0.442c0.907-0.223,1.797-0.45,2.669-0.681l0.867-0.232l1.039-0.287l1.302-0.37l1.003-0.295
	c1.082-0.324,2.13-0.653,3.145-0.989c0.761-0.251,1.503-0.506,2.225-0.764c0.481-0.172,0.953-0.345,1.417-0.52l0.688-0.263
	c1.222-0.474,2.378-0.957,3.466-1.449c0.544-0.246,1.072-0.495,1.582-0.746c0.765-0.377,1.491-0.758,2.177-1.144
	c1.372-0.772,2.583-1.563,3.624-2.37c0.52-0.404,0.998-0.812,1.432-1.224C1170.581,1737.985,1171.654,1735.977,1171.654,1733.912z"
	/>
<path style="fill:#518D32;" d="M1010.533,1498.675c9.443,4.17,21.193,2.492,29.093-4.153c8.235-6.928,11.63-18.048,11.457-28.953
	c-0.033-2.115-0.202-4.222-0.494-6.289c-1.801-12.722-7.563-24.476-12.575-36.306c-4.208-9.934-7.931-20.072-11.153-30.367
	c-13.035,15.659-25.36,32.835-32.081,52.257c-3.339,9.72-4.821,20.317-2.495,30.327
	C994.612,1485.203,1001.131,1494.524,1010.533,1498.675z"/>
<path style="fill:#518D32;" d="M1110.788,1498.675c9.402-4.152,15.921-13.472,18.247-23.483c2.326-10.01,0.844-20.608-2.495-30.327
	c-6.72-19.422-19.045-36.599-32.08-52.257c-3.222,10.295-6.945,20.434-11.153,30.367c-5.011,11.83-10.773,23.584-12.575,36.306
	c-0.292,2.067-0.46,4.174-0.494,6.289c-0.172,10.905,3.223,22.025,11.457,28.953
	C1089.594,1501.167,1101.344,1502.845,1110.788,1498.675z"/>
<path style="fill:#518D32;" d="M1135.593,1090.923c-18.215,30.824-31.6,64.525-38.943,99.586
	c-1.254,5.988-2.786,14.922,0.507,20.543c3.16,5.392,6.176-1.827,6.835-4.977c26.731-127.649,137.308-219.535,256.202-260.266
	c36.016-12.338,73.367-20.513,111.196-24.7c7.824-0.866,7.426-30.51,1.758-29.882
	C1339.711,905.997,1205.563,972.525,1135.593,1090.923z"/>
<path style="fill:#518D32;" d="M1040.229,1209.056c2.582-6.451,2.651-14.408,1.243-21.13
	c-13.203-63.047-46.44-120.636-91.38-166.432c-46.726-47.617-105.771-82.112-168.472-104.174
	c-37.251-13.107-75.97-21.75-115.209-26.092c-6.43-0.712-8.991,29.081-1.758,29.882c129.591,14.343,261.35,77.925,330.727,192.245
	c17.892,29.483,31.036,61.525,38.11,95.304C1034.64,1214.153,1038.304,1213.867,1040.229,1209.056z"/>
</svg>
